<?xml version="1.0" standalone="no"?>
<!DOCTYPE svg PUBLIC "-//W3C//DTD SVG 20010904//EN"
 "http://www.w3.org/TR/2001/REC-SVG-20010904/DTD/svg10.dtd">
<svg version="1.0" xmlns="http://www.w3.org/2000/svg"
 width="720.000000pt" height="720.000000pt" viewBox="0 0 720.000000 720.000000"
 preserveAspectRatio="xMidYMid meet">
<metadata>
Created by potrace 1.14, written by Peter Selinger 2001-2017
</metadata>
<g transform="translate(0.000000,720.000000) scale(0.100000,-0.100000)"
fill="#000000" stroke="none">
<path d="M4146 6223 c-1 -1 -33 -5 -72 -8 -104 -9 -109 -9 -115 -18 -5 -7
-199 -61 -264 -73 -16 -3 -33 -11 -37 -17 -4 -7 -8 -8 -8 -3 0 5 -7 3 -15 -4
-9 -7 -18 -10 -22 -7 -3 4 -12 2 -20 -4 -7 -6 -13 -8 -13 -4 0 4 -6 3 -12 -2
-7 -5 -49 -22 -93 -38 -44 -16 -83 -33 -87 -39 -4 -6 -8 -7 -8 -3 0 4 -10 2
-22 -5 -13 -7 -26 -11 -30 -10 -5 1 -8 -3 -8 -8 0 -5 -3 -9 -7 -8 -5 1 -18 -3
-30 -10 -13 -7 -23 -9 -23 -5 0 4 -4 3 -8 -3 -4 -6 -38 -26 -77 -44 -38 -18
-72 -36 -75 -40 -7 -9 -43 -24 -53 -21 -4 0 -10 -6 -13 -14 -4 -8 -12 -15 -20
-15 -8 0 -23 -9 -34 -20 -11 -11 -20 -17 -20 -14 0 3 -13 -4 -29 -15 -16 -12
-32 -21 -36 -21 -3 0 -13 -7 -22 -15 -8 -8 -19 -13 -24 -10 -5 4 -9 2 -9 -4 0
-5 -17 -19 -37 -32 -21 -12 -46 -32 -56 -43 -10 -12 -15 -14 -11 -6 7 14 -43
-24 -58 -45 -4 -5 -8 -6 -8 -2 0 4 -6 3 -12 -2 -58 -47 -78 -62 -78 -55 0 4
-9 -3 -20 -16 -11 -13 -20 -20 -20 -16 0 4 -7 1 -15 -6 -29 -26 -40 -34 -58
-41 -11 -4 -15 -12 -11 -18 4 -7 3 -9 -4 -5 -6 3 -40 -14 -75 -39 -36 -25 -70
-45 -75 -45 -6 0 -16 -8 -21 -17 -6 -10 -11 -14 -11 -9 0 5 -11 -1 -25 -14
-14 -13 -25 -19 -25 -14 0 5 -4 4 -8 -2 -10 -14 -85 -59 -94 -56 -5 1 -8 -2
-8 -8 0 -5 -6 -10 -13 -10 -7 0 -23 -9 -35 -20 -12 -11 -25 -20 -29 -20 -19 0
-43 -12 -43 -21 0 -6 -4 -8 -9 -4 -5 3 -12 1 -16 -5 -4 -6 -11 -8 -16 -5 -5 4
-9 3 -9 -2 0 -4 -15 -15 -32 -23 -18 -7 -33 -12 -33 -9 0 2 -13 -6 -30 -17
-16 -12 -36 -19 -42 -17 -7 3 -13 1 -13 -4 0 -5 -25 -20 -55 -34 -30 -13 -55
-28 -55 -32 0 -5 -4 -5 -10 -2 -5 3 -10 -2 -10 -12 0 -15 -2 -16 -10 -3 -8 12
-10 12 -10 1 0 -8 -3 -11 -7 -8 -3 4 -13 -2 -20 -13 -8 -11 -19 -18 -24 -15
-5 4 -9 2 -9 -3 0 -5 -6 -9 -13 -9 -13 0 -67 -34 -95 -60 -7 -7 -17 -13 -22
-13 -5 0 -15 -6 -22 -12 -7 -7 -33 -26 -58 -43 -25 -16 -46 -33 -48 -37 -2 -5
-10 -8 -17 -8 -7 0 -15 -7 -19 -15 -3 -8 -12 -15 -21 -15 -8 0 -15 -4 -15 -9
0 -5 -9 -13 -20 -16 -11 -4 -18 -9 -16 -13 2 -4 -8 -16 -22 -26 -15 -12 -22
-14 -17 -5 9 15 -24 -13 -86 -73 -22 -21 -39 -35 -39 -32 0 3 -15 -9 -33 -28
-18 -18 -52 -50 -75 -71 -23 -21 -42 -42 -42 -48 0 -6 -4 -7 -10 -4 -5 3 -10
2 -10 -3 0 -5 -17 -27 -37 -48 -21 -22 -51 -55 -67 -74 -65 -78 -62 -74 -46
-65 8 5 0 -6 -17 -25 -18 -18 -36 -43 -39 -54 -4 -12 -15 -33 -26 -48 -11 -16
-16 -28 -12 -28 3 0 0 -7 -7 -17 -8 -9 -13 -18 -11 -20 1 -1 2 -4 1 -5 -11
-36 -14 -110 -6 -153 7 -37 15 -69 17 -72 2 -2 3 -6 4 -10 9 -32 51 -111 58
-107 5 3 8 2 7 -3 -3 -20 3 -34 24 -54 12 -12 15 -18 7 -14 -12 7 -12 5 1 -11
27 -31 77 -137 85 -180 13 -68 7 -106 -29 -198 -20 -50 -34 -93 -31 -97 2 -4
1 -9 -3 -11 -5 -1 -17 -28 -27 -58 -11 -30 -24 -66 -29 -80 -5 -14 -11 -32
-12 -40 -1 -8 -8 -35 -15 -60 -7 -25 -14 -52 -16 -60 -5 -33 -15 -76 -19 -87
-2 -7 0 -15 6 -19 6 -4 6 -11 -2 -21 -17 -19 -13 -144 6 -258 3 -16 7 -39 8
-50 2 -11 6 -26 11 -33 4 -6 5 -12 2 -12 -6 0 34 -111 65 -179 12 -28 26 -51
31 -51 4 0 8 -9 8 -20 0 -11 3 -20 8 -20 4 0 22 -22 40 -50 18 -28 37 -50 43
-50 6 0 7 -4 4 -10 -3 -6 1 -7 9 -4 11 4 16 0 16 -10 0 -9 3 -16 8 -16 4 0 23
-14 42 -30 32 -27 45 -34 53 -27 1 1 13 -8 27 -20 13 -13 31 -23 39 -23 9 0
24 -7 34 -15 11 -7 25 -11 33 -8 8 3 14 -1 14 -8 0 -7 3 -9 6 -6 4 4 19 -2 34
-13 15 -11 31 -16 35 -12 5 4 5 1 1 -5 -4 -7 -4 -13 1 -13 13 0 72 -51 149
-127 39 -40 77 -73 84 -73 6 0 9 -4 5 -9 -3 -5 4 -12 15 -16 11 -3 20 -13 20
-21 0 -8 5 -12 10 -9 6 3 10 2 10 -4 0 -5 9 -13 20 -16 11 -4 18 -11 15 -16
-4 -5 -1 -9 5 -9 6 0 16 -5 23 -10 49 -42 61 -49 70 -43 6 4 7 1 3 -6 -5 -8 0
-14 13 -18 11 -3 19 -9 16 -13 -5 -7 21 -18 38 -16 5 1 13 -7 18 -17 6 -9 17
-17 24 -17 8 0 15 -4 15 -9 0 -5 8 -12 18 -15 22 -8 55 -28 78 -46 13 -11 16
-11 10 -2 -7 11 -4 11 13 0 12 -7 21 -16 21 -21 0 -4 4 -6 9 -2 5 3 15 -1 23
-8 13 -13 66 -32 81 -29 4 1 7 -3 7 -9 0 -5 4 -8 9 -5 5 3 11 -1 15 -9 3 -8
12 -12 21 -9 8 4 15 1 15 -7 0 -7 3 -10 6 -6 3 3 25 -1 47 -10 23 -8 49 -16
57 -17 8 -1 22 -5 30 -9 8 -4 24 -8 35 -10 11 -2 27 -7 35 -10 18 -7 77 -19
108 -21 12 0 22 -4 22 -7 0 -3 12 -6 28 -7 15 0 54 -5 87 -10 78 -13 606 -13
622 -1 7 7 14 6 18 -1 3 -6 10 -8 14 -6 8 5 58 17 79 18 6 1 12 5 12 10 0 4 9
8 21 8 11 0 17 4 14 10 -3 6 1 7 9 4 9 -3 16 -1 16 4 0 6 8 11 18 11 9 0 31 2
47 6 17 3 41 7 55 8 14 2 30 5 35 8 6 3 54 5 107 4 54 0 98 4 98 8 0 5 5 5 12
1 15 -10 258 -11 264 -2 3 4 16 3 29 -2 16 -6 25 -6 25 0 0 6 9 6 23 1 12 -5
32 -5 45 0 12 5 22 5 22 -1 0 -5 13 -5 30 0 19 5 30 5 30 -1 0 -6 5 -7 12 -3
6 4 59 9 116 10 58 2 128 6 156 8 28 3 85 8 126 11 41 4 91 9 110 11 19 2 55
6 80 9 57 6 109 14 140 21 14 3 34 7 45 8 11 2 36 7 55 11 19 4 42 9 50 10 8
1 22 5 30 8 27 11 104 26 111 21 4 -2 9 2 12 10 4 9 14 12 26 9 13 -3 21 -1
21 6 0 7 4 9 10 6 5 -3 30 3 54 14 25 10 47 17 50 13 3 -3 6 0 6 6 0 7 3 11 8
10 9 -4 82 41 82 51 0 6 45 26 64 28 5 1 12 5 15 10 8 12 128 93 137 93 4 0
15 10 25 22 11 11 19 17 19 12 0 -5 7 0 15 10 8 11 15 16 15 11 0 -4 8 2 19
13 10 12 21 19 25 15 3 -3 6 -2 6 4 0 5 15 18 34 28 19 11 32 23 30 27 -3 5
-2 7 3 6 15 -4 53 13 53 24 0 5 7 7 15 4 9 -3 18 1 21 9 4 8 12 15 20 15 8 0
14 3 14 8 0 4 16 16 35 26 19 11 35 23 35 28 0 4 7 8 15 8 8 0 19 9 25 20 6
11 15 18 19 16 4 -3 27 17 51 44 24 28 50 50 57 50 7 0 13 7 13 16 0 8 5 12
10 9 6 -3 10 2 10 11 0 10 3 14 7 11 7 -8 39 34 35 46 -1 4 5 10 13 13 8 3 13
10 10 14 -3 5 -1 11 5 15 5 3 10 15 10 26 0 11 11 42 25 69 14 28 22 50 18 50
-5 0 0 5 10 11 9 6 15 14 12 19 -3 4 7 34 20 65 14 32 23 60 21 63 -3 3 -2 10
3 16 5 6 17 38 26 71 9 33 18 65 19 70 2 6 4 13 5 17 1 4 8 23 16 42 8 18 11
36 8 40 -4 3 0 6 7 6 7 0 11 3 7 6 -3 4 0 19 9 35 8 16 12 29 8 29 -4 0 -1 6
5 13 6 8 8 17 4 20 -3 4 -1 7 5 7 7 0 12 4 12 9 0 5 9 30 20 55 11 26 19 47
18 49 -4 8 143 271 154 275 5 2 6 8 2 13 -3 5 0 9 6 9 6 0 8 5 5 10 -3 5 -2
10 3 10 5 0 29 33 53 73 24 39 47 74 51 75 5 2 8 10 8 18 0 8 5 14 10 14 6 0
10 6 10 13 0 8 9 24 20 37 11 13 20 28 20 35 0 6 9 21 20 33 12 12 18 22 14
22 -3 0 1 11 10 25 9 14 14 25 11 25 -4 0 1 7 9 16 9 8 14 20 11 25 -4 5 -1 9
6 9 7 0 9 3 6 7 -4 3 -3 11 2 17 5 6 14 36 21 66 7 30 17 63 22 74 8 14 7 17
-4 10 -11 -6 -11 -5 1 9 7 9 15 38 16 64 2 27 4 50 6 53 5 10 5 279 0 275 -3
-1 -7 16 -7 38 -3 71 -9 117 -15 117 -4 0 -9 15 -12 33 -13 75 -20 97 -28 97
-5 0 -9 9 -9 20 0 11 -4 20 -10 20 -5 0 -10 6 -10 14 0 8 -6 21 -13 28 -7 7
-15 18 -16 23 -9 28 -14 34 -22 29 -5 -3 -9 -2 -8 3 3 20 -3 32 -40 73 -22 25
-37 48 -35 52 3 5 0 7 -8 6 -7 -2 -12 3 -10 10 1 6 -5 12 -13 12 -8 0 -15 3
-15 8 0 7 -42 51 -91 96 -9 8 -20 12 -24 8 -5 -4 -5 -2 -2 4 4 7 -13 28 -39
50 -26 20 -56 47 -68 58 -12 12 -37 32 -56 46 -19 14 -47 37 -63 52 -16 15
-34 25 -40 21 -6 -3 -7 -1 -3 5 4 7 1 12 -7 12 -8 0 -18 7 -21 16 -4 9 -9 15
-12 12 -2 -3 -21 10 -41 28 -20 19 -43 34 -51 34 -7 0 -10 5 -7 10 3 6 0 10
-7 10 -8 0 -21 9 -31 20 -10 12 -23 18 -29 14 -6 -4 -8 -3 -4 4 3 6 -11 29
-31 51 -54 57 -74 81 -68 81 6 0 -99 154 -133 195 -14 17 -29 29 -34 27 -5 -1
-7 1 -4 6 6 10 -30 52 -44 52 -5 0 -12 9 -15 20 -3 11 -13 20 -21 20 -8 0 -14
5 -14 10 0 6 -6 10 -13 10 -7 0 -23 9 -35 20 -12 12 -22 18 -22 14 0 -4 -8 0
-18 9 -10 10 -22 14 -25 10 -4 -3 -7 -1 -7 6 0 7 -4 9 -10 6 -5 -3 -10 -2 -10
2 0 5 -16 15 -35 22 -19 7 -35 17 -35 23 0 6 -3 9 -6 5 -4 -3 -34 9 -69 28
-34 19 -65 32 -69 28 -3 -3 -6 -1 -6 5 0 10 -38 28 -52 24 -5 -1 -8 2 -8 6 0
5 -16 14 -35 22 -19 8 -35 18 -35 24 0 5 -3 6 -7 3 -3 -4 -21 3 -40 14 -18 11
-33 17 -33 14 0 -4 -7 -1 -17 6 -9 8 -18 13 -20 11 -1 -1 -27 9 -55 23 -29 14
-58 23 -65 21 -7 -3 -13 -2 -13 3 0 4 -19 14 -42 21 -24 7 -47 17 -53 22 -5 4
-18 8 -30 8 -12 0 -25 4 -31 10 -5 5 -22 11 -37 12 -15 1 -27 6 -27 10 0 4 -3
7 -7 6 -5 -1 -20 2 -34 6 -14 4 -32 8 -40 9 -8 2 -20 6 -26 10 -7 5 -13 6 -13
3 0 -2 -15 0 -32 5 -18 5 -49 12 -68 15 -19 3 -43 7 -52 10 -30 9 -72 16 -103
19 -16 1 -30 3 -30 4 0 7 -392 21 -399 14z"/>
<path d="M6229 1873 c-13 -16 -12 -17 4 -4 16 13 21 21 13 21 -2 0 -10 -8 -17
-17z"/>
</g>
</svg>
